<svg width="140" height="36" viewBox="0 0 140 36" fill="none" xmlns="http://www.w3.org/2000/svg">
<path d="M13.5123 22.312C12.9203 22.312 12.3763 22.256 11.8803 22.144C11.3843 22.032 10.9763 21.824 10.6563 21.52C10.4163 21.296 10.2563 21.048 10.1763 20.776C10.0963 20.488 10.0563 20.176 10.0563 19.84C10.0563 19.296 10.1043 18.752 10.2003 18.208C10.3443 17.264 10.4723 16.248 10.5843 15.16C10.6963 14.072 10.7523 13.064 10.7523 12.136C10.7523 11.848 10.7363 11.52 10.7043 11.152C10.6883 10.784 10.6563 10.44 10.6083 10.12C10.4963 10.168 10.3843 10.216 10.2723 10.264C10.1763 10.296 10.0883 10.312 10.0083 10.312C9.86431 10.312 9.76831 10.24 9.72031 10.096C9.67231 9.952 9.64831 9.792 9.64831 9.616C9.64831 9.152 9.75231 8.76 9.96031 8.44C10.1843 8.104 10.5443 7.808 11.0403 7.552C11.5683 7.264 12.2563 7.016 13.1043 6.808C13.9683 6.584 14.8403 6.472 15.7203 6.472C17.7203 6.472 19.2883 7.064 20.4243 8.248C21.5763 9.416 22.1523 11.08 22.1523 13.24C22.1523 14.472 21.9603 15.64 21.5763 16.744C21.2083 17.832 20.6563 18.8 19.9203 19.648C19.1843 20.48 18.2803 21.136 17.2083 21.616C16.1363 22.08 14.9043 22.312 13.5123 22.312ZM14.2803 19.624C15.0003 19.624 15.7203 19.512 16.4403 19.288C17.1603 19.064 17.8083 18.728 18.3843 18.28C18.9763 17.832 19.4483 17.264 19.8003 16.576C20.1523 15.872 20.3283 15.032 20.3283 14.056C20.3283 12.952 20.1123 12.04 19.6803 11.32C19.2483 10.6 18.6723 10.064 17.9523 9.712C17.2323 9.36 16.4323 9.184 15.5523 9.184C15.0723 9.184 14.5923 9.224 14.1123 9.304C13.6483 9.384 13.2803 9.464 13.0083 9.544C12.9923 10.28 12.9443 11 12.8643 11.704C12.8003 12.392 12.7203 13.064 12.6243 13.72C12.5283 14.408 12.4483 15.08 12.3843 15.736C12.3363 16.392 12.3123 17.04 12.3123 17.68C12.3123 18.48 12.4723 19.008 12.7923 19.264C13.1283 19.504 13.6243 19.624 14.2803 19.624ZM27.4057 22.312C26.1897 22.312 25.2377 21.968 24.5497 21.28C23.8777 20.576 23.5417 19.6 23.5417 18.352C23.5417 17.216 23.7897 16.184 24.2857 15.256C24.7817 14.328 25.4457 13.592 26.2777 13.048C27.1257 12.488 28.0537 12.208 29.0617 12.208C30.0217 12.208 30.7897 12.448 31.3657 12.928C31.9417 13.392 32.2297 14.016 32.2297 14.8C32.2297 15.424 32.0377 16 31.6537 16.528C31.2697 17.056 30.7577 17.48 30.1177 17.8C29.4777 18.104 28.7657 18.256 27.9817 18.256C27.0217 18.256 26.2377 18.04 25.6297 17.608C25.6457 18.344 25.8937 18.936 26.3737 19.384C26.8697 19.832 27.5017 20.056 28.2697 20.056C28.7337 20.056 29.2057 19.976 29.6857 19.816C30.1817 19.64 30.6057 19.408 30.9577 19.12C31.1817 18.928 31.3897 18.832 31.5817 18.832C31.7417 18.832 31.8697 18.888 31.9657 19C32.0777 19.096 32.1337 19.224 32.1337 19.384C32.1337 19.736 31.8297 20.2 31.2217 20.776C30.1497 21.8 28.8777 22.312 27.4057 22.312ZM27.7657 16.672C28.3417 16.672 28.8217 16.552 29.2057 16.312C29.5897 16.072 29.7817 15.768 29.7817 15.4C29.7817 15.096 29.6537 14.864 29.3977 14.704C29.1417 14.528 28.7897 14.44 28.3417 14.44C27.7497 14.44 27.2297 14.6 26.7817 14.92C26.3497 15.224 26.0377 15.656 25.8457 16.216C26.0697 16.36 26.3577 16.472 26.7097 16.552C27.0617 16.632 27.4137 16.672 27.7657 16.672ZM37.4514 22.336C37.0194 22.336 36.6434 22.208 36.3234 21.952C36.0194 21.68 35.8354 21.184 35.7714 20.464C35.7394 19.92 35.6674 19.32 35.5554 18.664C35.4594 18.008 35.3314 17.384 35.1714 16.792C35.0114 16.2 34.8274 15.736 34.6194 15.4C34.5074 15.224 34.3794 15.096 34.2354 15.016C34.1074 14.92 33.9074 14.856 33.6354 14.824C33.4594 14.808 33.3394 14.752 33.2754 14.656C33.2114 14.56 33.1794 14.408 33.1794 14.2C33.1794 13.544 33.3554 13.064 33.7074 12.76C34.0754 12.44 34.4914 12.28 34.9554 12.28C35.4354 12.28 35.8354 12.44 36.1554 12.76C36.4754 13.064 36.7234 13.472 36.8994 13.984C37.0754 14.496 37.1954 15.064 37.2594 15.688C37.3394 16.296 37.3794 16.912 37.3794 17.536C37.3794 17.792 37.3714 18.064 37.3554 18.352C37.3554 18.624 37.3554 18.856 37.3554 19.048C37.3554 19.224 37.3874 19.36 37.4514 19.456C37.5314 19.552 37.6754 19.6 37.8834 19.6C38.1394 19.6 38.4354 19.528 38.7714 19.384C39.1074 19.224 39.4354 19 39.7554 18.712C40.0914 18.424 40.3634 18.088 40.5714 17.704C40.7954 17.304 40.9074 16.864 40.9074 16.384C40.9074 16.112 40.8594 15.824 40.7634 15.52C40.6834 15.216 40.5474 14.96 40.3554 14.752C40.1634 14.544 40.0194 14.384 39.9234 14.272C39.8434 14.144 39.8034 14 39.8034 13.84C39.8034 13.552 39.9314 13.288 40.1874 13.048C40.4594 12.808 40.7714 12.616 41.1234 12.472C41.4914 12.328 41.8114 12.256 42.0834 12.256C42.5474 12.256 42.8434 12.448 42.9714 12.832C43.0994 13.216 43.1634 13.64 43.1634 14.104C43.1634 14.984 43.0034 15.904 42.6834 16.864C42.3634 17.824 41.9314 18.72 41.3874 19.552C40.8434 20.384 40.2274 21.056 39.5394 21.568C38.8674 22.08 38.1714 22.336 37.4514 22.336ZM50.6337 22.312C49.4977 22.312 48.4977 22.056 47.6337 21.544C46.7857 21.032 46.1297 20.304 45.6657 19.36C45.2017 18.416 44.9697 17.296 44.9697 16C44.9697 14.768 45.1697 13.584 45.5697 12.448C45.9697 11.312 46.5457 10.296 47.2977 9.4C48.0497 8.504 48.9537 7.792 50.0097 7.264C51.0657 6.736 52.2577 6.472 53.5857 6.472C54.5777 6.472 55.3937 6.624 56.0337 6.928C56.6737 7.232 56.9937 7.68 56.9937 8.272C56.9937 8.56 56.9137 8.848 56.7537 9.136C56.6097 9.408 56.4177 9.64 56.1777 9.832C55.9377 10.024 55.6897 10.12 55.4337 10.12C55.2737 10.12 55.1457 10.08 55.0497 10C54.6177 9.712 54.1937 9.504 53.7777 9.376C53.3617 9.232 52.8817 9.16 52.3377 9.16C51.2017 9.16 50.2417 9.424 49.4577 9.952C48.6737 10.464 48.0737 11.144 47.6577 11.992C47.2577 12.84 47.0577 13.76 47.0577 14.752C47.0577 15.712 47.2417 16.56 47.6097 17.296C47.9777 18.032 48.4897 18.608 49.1457 19.024C49.8017 19.44 50.5697 19.648 51.4497 19.648C52.1537 19.648 52.8337 19.512 53.4897 19.24C54.1617 18.952 54.7537 18.56 55.2657 18.064C55.4897 17.856 55.7137 17.752 55.9377 17.752C56.1297 17.752 56.2657 17.832 56.3457 17.992C56.4257 18.152 56.4657 18.312 56.4657 18.472C56.4657 18.744 56.3857 19.056 56.2257 19.408C56.0657 19.744 55.8177 20.08 55.4817 20.416C54.8897 21.008 54.1617 21.472 53.2977 21.808C52.4337 22.144 51.5457 22.312 50.6337 22.312ZM61.7656 22.312C60.6616 22.312 59.7736 22.016 59.1016 21.424C58.4456 20.816 58.1176 19.928 58.1176 18.76C58.1176 18.216 58.1896 17.688 58.3336 17.176C58.4936 16.664 58.7016 16.184 58.9576 15.736C58.7016 15.896 58.5096 15.976 58.3816 15.976C58.1896 15.976 58.0536 15.872 57.9736 15.664C57.9096 15.44 57.8776 15.224 57.8776 15.016C57.8776 14.648 57.9496 14.36 58.0936 14.152C58.2536 13.928 58.4056 13.76 58.5496 13.648C58.8856 13.36 59.4136 13.048 60.1336 12.712C60.8536 12.36 61.7176 12.184 62.7256 12.184C64.1016 12.184 65.1656 12.568 65.9176 13.336C66.6856 14.104 67.0696 15.176 67.0696 16.552C67.0696 17.624 66.8456 18.6 66.3976 19.48C65.9496 20.344 65.3256 21.032 64.5256 21.544C63.7416 22.056 62.8216 22.312 61.7656 22.312ZM62.5096 19.864C63.3096 19.864 63.9816 19.616 64.5256 19.12C65.0856 18.608 65.3656 17.936 65.3656 17.104C65.3656 16.24 65.0856 15.624 64.5256 15.256C63.9656 14.888 63.3176 14.704 62.5816 14.704C62.2456 14.704 61.9416 14.736 61.6696 14.8C61.3976 14.864 61.1416 14.944 60.9016 15.04C60.6776 15.36 60.4776 15.72 60.3016 16.12C60.1256 16.52 60.0376 16.96 60.0376 17.44C60.0376 18.24 60.2776 18.848 60.7576 19.264C61.2376 19.664 61.8216 19.864 62.5096 19.864ZM70.2629 22.264C69.6869 22.264 69.4309 22.072 69.4949 21.688C69.6709 21 69.8149 20.304 69.9269 19.6C70.0549 18.88 70.1189 18.192 70.1189 17.536C70.1189 16.688 70.0629 16.072 69.9509 15.688C69.8549 15.288 69.7189 15.016 69.5429 14.872C69.3669 14.712 69.1509 14.592 68.8949 14.512C68.7829 14.464 68.6789 14.4 68.5829 14.32C68.5029 14.24 68.4629 14.128 68.4629 13.984C68.4629 13.76 68.5509 13.512 68.7269 13.24C68.9029 12.968 69.1509 12.736 69.4709 12.544C69.8069 12.336 70.1829 12.232 70.5989 12.232C71.1429 12.232 71.5189 12.424 71.7269 12.808C71.9349 13.176 72.0389 13.664 72.0389 14.272C72.0389 14.672 71.9989 15.12 71.9189 15.616C71.8389 16.112 71.7589 16.56 71.6789 16.96L71.7509 16.984C72.0709 16.136 72.4549 15.352 72.9029 14.632C73.3669 13.896 73.9029 13.304 74.5109 12.856C75.1189 12.408 75.8229 12.184 76.6229 12.184C77.4709 12.184 78.1189 12.44 78.5669 12.952C79.0149 13.464 79.2389 14.104 79.2389 14.872C79.2389 15.192 79.1989 15.496 79.1189 15.784C79.0549 16.072 78.9829 16.352 78.9029 16.624C78.8229 16.88 78.7509 17.144 78.6869 17.416C78.6389 17.688 78.6149 17.96 78.6149 18.232C78.6149 19.144 79.0469 19.76 79.9109 20.08C80.1349 20.176 80.2469 20.32 80.2469 20.512C80.2469 20.656 80.1989 20.864 80.1029 21.136C80.0069 21.408 79.8309 21.664 79.5749 21.904C79.3189 22.128 78.9429 22.24 78.4469 22.24C77.8069 22.24 77.3109 22.016 76.9589 21.568C76.6069 21.104 76.4309 20.52 76.4309 19.816C76.4309 19.416 76.4709 19.016 76.5509 18.616C76.6469 18.2 76.7429 17.816 76.8389 17.464C76.9029 17.192 76.9589 16.928 77.0069 16.672C77.0709 16.4 77.1029 16.16 77.1029 15.952C77.1029 15.216 76.7189 14.848 75.9509 14.848C75.2949 14.848 74.7189 15.096 74.2229 15.592C73.7269 16.072 73.3029 16.68 72.9509 17.416C72.5989 18.152 72.3109 18.896 72.0869 19.648V20.224C72.0869 20.816 71.9189 21.304 71.5829 21.688C71.2629 22.072 70.8229 22.264 70.2629 22.264Z" fill="#100C08"/>
</svg>
