<svg width="503" height="145" viewBox="0 0 503 145" fill="none" xmlns="http://www.w3.org/2000/svg">
<path d="M36.0113 93.3C33.5447 93.3 31.278 93.0667 29.2113 92.6C27.1447 92.1333 25.4447 91.2667 24.1113 90C23.1113 89.0667 22.4447 88.0333 22.1113 86.9C21.778 85.7 21.6113 84.4 21.6113 83C21.6113 80.7333 21.8113 78.4667 22.2113 76.2C22.8113 72.2667 23.3447 68.0333 23.8113 63.5C24.278 58.9667 24.5113 54.7667 24.5113 50.9C24.5113 49.7 24.4447 48.3333 24.3113 46.8C24.2447 45.2667 24.1113 43.8333 23.9113 42.5C23.4447 42.7 22.978 42.9 22.5113 43.1C22.1113 43.2333 21.7447 43.3 21.4113 43.3C20.8113 43.3 20.4113 43 20.2113 42.4C20.0113 41.8 19.9113 41.1333 19.9113 40.4C19.9113 38.4667 20.3447 36.8333 21.2113 35.5C22.1447 34.1 23.6447 32.8667 25.7113 31.8C27.9113 30.6 30.778 29.5667 34.3113 28.7C37.9113 27.7667 41.5447 27.3 45.2113 27.3C53.5447 27.3 60.078 29.7667 64.8113 34.7C69.6113 39.5667 72.0113 46.5 72.0113 55.5C72.0113 60.6333 71.2113 65.5 69.6113 70.1C68.078 74.6333 65.778 78.6667 62.7113 82.2C59.6447 85.6667 55.878 88.4 51.4113 90.4C46.9447 92.3333 41.8113 93.3 36.0113 93.3ZM39.2113 82.1C42.2113 82.1 45.2113 81.6333 48.2113 80.7C51.2113 79.7667 53.9113 78.3667 56.3113 76.5C58.778 74.6333 60.7447 72.2667 62.2113 69.4C63.678 66.4667 64.4113 62.9667 64.4113 58.9C64.4113 54.3 63.5113 50.5 61.7113 47.5C59.9113 44.5 57.5113 42.2667 54.5113 40.8C51.5113 39.3333 48.178 38.6 44.5113 38.6C42.5113 38.6 40.5113 38.7667 38.5113 39.1C36.578 39.4333 35.0447 39.7667 33.9113 40.1C33.8447 43.1667 33.6447 46.1667 33.3113 49.1C33.0447 51.9667 32.7113 54.7667 32.3113 57.5C31.9113 60.3667 31.578 63.1667 31.3113 65.9C31.1113 68.6333 31.0113 71.3333 31.0113 74C31.0113 77.3333 31.678 79.5333 33.0113 80.6C34.4113 81.6 36.478 82.1 39.2113 82.1ZM93.9004 93.3C88.8337 93.3 84.8671 91.8667 82.0004 89C79.2004 86.0667 77.8004 82 77.8004 76.8C77.8004 72.0667 78.8337 67.7667 80.9004 63.9C82.9671 60.0333 85.7337 56.9667 89.2004 54.7C92.7337 52.3667 96.6004 51.2 100.8 51.2C104.8 51.2 108 52.2 110.4 54.2C112.8 56.1333 114 58.7333 114 62C114 64.6 113.2 67 111.6 69.2C110 71.4 107.867 73.1667 105.2 74.5C102.534 75.7667 99.5671 76.4 96.3004 76.4C92.3004 76.4 89.0337 75.5 86.5004 73.7C86.5671 76.7667 87.6004 79.2333 89.6004 81.1C91.6671 82.9667 94.3004 83.9 97.5004 83.9C99.4337 83.9 101.4 83.5667 103.4 82.9C105.467 82.1667 107.234 81.2 108.7 80C109.634 79.2 110.5 78.8 111.3 78.8C111.967 78.8 112.5 79.0333 112.9 79.5C113.367 79.9 113.6 80.4333 113.6 81.1C113.6 82.5667 112.334 84.5 109.8 86.9C105.334 91.1667 100.034 93.3 93.9004 93.3ZM95.4004 69.8C97.8004 69.8 99.8004 69.3 101.4 68.3C103 67.3 103.8 66.0333 103.8 64.5C103.8 63.2333 103.267 62.2667 102.2 61.6C101.134 60.8667 99.6671 60.5 97.8004 60.5C95.3337 60.5 93.1671 61.1667 91.3004 62.5C89.5004 63.7667 88.2004 65.5667 87.4004 67.9C88.3337 68.5 89.5337 68.9667 91.0004 69.3C92.4671 69.6333 93.9337 69.8 95.4004 69.8ZM135.757 93.4C133.957 93.4 132.391 92.8667 131.057 91.8C129.791 90.6667 129.024 88.6 128.757 85.6C128.624 83.3333 128.324 80.8333 127.857 78.1C127.457 75.3667 126.924 72.7667 126.257 70.3C125.591 67.8333 124.824 65.9 123.957 64.5C123.491 63.7667 122.957 63.2333 122.357 62.9C121.824 62.5 120.991 62.2333 119.857 62.1C119.124 62.0333 118.624 61.8 118.357 61.4C118.091 61 117.957 60.3667 117.957 59.5C117.957 56.7667 118.691 54.7667 120.157 53.5C121.691 52.1667 123.424 51.5 125.357 51.5C127.357 51.5 129.024 52.1667 130.357 53.5C131.691 54.7667 132.724 56.4667 133.457 58.6C134.191 60.7333 134.691 63.1 134.957 65.7C135.291 68.2333 135.457 70.8 135.457 73.4C135.457 74.4667 135.424 75.6 135.357 76.8C135.357 77.9333 135.357 78.9 135.357 79.7C135.357 80.4333 135.491 81 135.757 81.4C136.091 81.8 136.691 82 137.557 82C138.624 82 139.857 81.7 141.257 81.1C142.657 80.4333 144.024 79.5 145.357 78.3C146.757 77.1 147.891 75.7 148.757 74.1C149.691 72.4333 150.157 70.6 150.157 68.6C150.157 67.4667 149.957 66.2667 149.557 65C149.224 63.7333 148.657 62.6667 147.857 61.8C147.057 60.9333 146.457 60.2667 146.057 59.8C145.724 59.2667 145.557 58.6667 145.557 58C145.557 56.8 146.091 55.7 147.157 54.7C148.291 53.7 149.591 52.9 151.057 52.3C152.591 51.7 153.924 51.4 155.057 51.4C156.991 51.4 158.224 52.2 158.757 53.8C159.291 55.4 159.557 57.1667 159.557 59.1C159.557 62.7667 158.891 66.6 157.557 70.6C156.224 74.6 154.424 78.3333 152.157 81.8C149.891 85.2667 147.324 88.0667 144.457 90.2C141.657 92.3333 138.757 93.4 135.757 93.4ZM190.684 93.3C185.951 93.3 181.784 92.2333 178.184 90.1C174.651 87.9667 171.917 84.9333 169.984 81C168.051 77.0667 167.084 72.4 167.084 67C167.084 61.8667 167.917 56.9333 169.584 52.2C171.251 47.4667 173.651 43.2333 176.784 39.5C179.917 35.7667 183.684 32.8 188.084 30.6C192.484 28.4 197.451 27.3 202.984 27.3C207.117 27.3 210.517 27.9333 213.184 29.2C215.851 30.4667 217.184 32.3333 217.184 34.8C217.184 36 216.851 37.2 216.184 38.4C215.584 39.5333 214.784 40.5 213.784 41.3C212.784 42.1 211.751 42.5 210.684 42.5C210.017 42.5 209.484 42.3333 209.084 42C207.284 40.8 205.517 39.9333 203.784 39.4C202.051 38.8 200.051 38.5 197.784 38.5C193.051 38.5 189.051 39.6 185.784 41.8C182.517 43.9333 180.017 46.7667 178.284 50.3C176.617 53.8333 175.784 57.6667 175.784 61.8C175.784 65.8 176.551 69.3333 178.084 72.4C179.617 75.4667 181.751 77.8667 184.484 79.6C187.217 81.3333 190.417 82.2 194.084 82.2C197.017 82.2 199.851 81.6333 202.584 80.5C205.384 79.3 207.851 77.6667 209.984 75.6C210.917 74.7333 211.851 74.3 212.784 74.3C213.584 74.3 214.151 74.6333 214.484 75.3C214.817 75.9667 214.984 76.6333 214.984 77.3C214.984 78.4333 214.651 79.7333 213.984 81.2C213.317 82.6 212.284 84 210.884 85.4C208.417 87.8667 205.384 89.8 201.784 91.2C198.184 92.6 194.484 93.3 190.684 93.3ZM237.067 93.3C232.467 93.3 228.767 92.0667 225.967 89.6C223.233 87.0667 221.867 83.3667 221.867 78.5C221.867 76.2333 222.167 74.0333 222.767 71.9C223.433 69.7667 224.3 67.7667 225.367 65.9C224.3 66.5667 223.5 66.9 222.967 66.9C222.167 66.9 221.6 66.4667 221.267 65.6C221 64.6667 220.867 63.7667 220.867 62.9C220.867 61.3667 221.167 60.1667 221.767 59.3C222.433 58.3667 223.067 57.6667 223.667 57.2C225.067 56 227.267 54.7 230.267 53.3C233.267 51.8333 236.867 51.1 241.067 51.1C246.8 51.1 251.233 52.7 254.367 55.9C257.567 59.1 259.167 63.5667 259.167 69.3C259.167 73.7667 258.233 77.8333 256.367 81.5C254.5 85.1 251.9 87.9667 248.567 90.1C245.3 92.2333 241.467 93.3 237.067 93.3ZM240.167 83.1C243.5 83.1 246.3 82.0667 248.567 80C250.9 77.8667 252.067 75.0667 252.067 71.6C252.067 68 250.9 65.4333 248.567 63.9C246.233 62.3667 243.533 61.6 240.467 61.6C239.067 61.6 237.8 61.7333 236.667 62C235.533 62.2667 234.467 62.6 233.467 63C232.533 64.3333 231.7 65.8333 230.967 67.5C230.233 69.1667 229.867 71 229.867 73C229.867 76.3333 230.867 78.8667 232.867 80.6C234.867 82.2667 237.3 83.1 240.167 83.1ZM272.472 93.1C270.072 93.1 269.006 92.3 269.272 90.7C270.006 87.8333 270.606 84.9333 271.072 82C271.606 79 271.872 76.1333 271.872 73.4C271.872 69.8667 271.639 67.3 271.172 65.7C270.772 64.0333 270.206 62.9 269.472 62.3C268.739 61.6333 267.839 61.1333 266.772 60.8C266.306 60.6 265.872 60.3333 265.472 60C265.139 59.6667 264.972 59.2 264.972 58.6C264.972 57.6667 265.339 56.6333 266.072 55.5C266.806 54.3667 267.839 53.4 269.172 52.6C270.572 51.7333 272.139 51.3 273.872 51.3C276.139 51.3 277.706 52.1 278.572 53.7C279.439 55.2333 279.872 57.2667 279.872 59.8C279.872 61.4667 279.706 63.3333 279.372 65.4C279.039 67.4667 278.706 69.3333 278.372 71L278.672 71.1C280.006 67.5667 281.606 64.3 283.472 61.3C285.406 58.2333 287.639 55.7667 290.172 53.9C292.706 52.0333 295.639 51.1 298.972 51.1C302.506 51.1 305.206 52.1667 307.072 54.3C308.939 56.4333 309.872 59.1 309.872 62.3C309.872 63.6333 309.706 64.9 309.372 66.1C309.106 67.3 308.806 68.4667 308.472 69.6C308.139 70.6667 307.839 71.7667 307.572 72.9C307.372 74.0333 307.272 75.1667 307.272 76.3C307.272 80.1 309.072 82.6667 312.672 84C313.606 84.4 314.072 85 314.072 85.8C314.072 86.4 313.872 87.2667 313.472 88.4C313.072 89.5333 312.339 90.6 311.272 91.6C310.206 92.5333 308.639 93 306.572 93C303.906 93 301.839 92.0667 300.372 90.2C298.906 88.2667 298.172 85.8333 298.172 82.9C298.172 81.2333 298.339 79.5667 298.672 77.9C299.072 76.1667 299.472 74.5667 299.872 73.1C300.139 71.9667 300.372 70.8667 300.572 69.8C300.839 68.6667 300.972 67.6667 300.972 66.8C300.972 63.7333 299.372 62.2 296.172 62.2C293.439 62.2 291.039 63.2333 288.972 65.3C286.906 67.3 285.139 69.8333 283.672 72.9C282.206 75.9667 281.006 79.0667 280.072 82.2V84.6C280.072 87.0667 279.372 89.1 277.972 90.7C276.639 92.3 274.806 93.1 272.472 93.1ZM326.086 93.1C323.686 93.1 322.619 92.3 322.886 90.7C323.619 87.8333 324.219 84.9333 324.686 82C325.219 79 325.486 76.1333 325.486 73.4C325.486 69.8667 325.252 67.3 324.786 65.7C324.386 64.0333 323.819 62.9 323.086 62.3C322.352 61.6333 321.452 61.1333 320.386 60.8C319.919 60.6 319.486 60.3333 319.086 60C318.752 59.6667 318.586 59.2 318.586 58.6C318.586 57.6667 318.952 56.6333 319.686 55.5C320.419 54.3667 321.452 53.4 322.786 52.6C324.186 51.7333 325.752 51.3 327.486 51.3C329.752 51.3 331.319 52.1 332.186 53.7C333.052 55.2333 333.486 57.2667 333.486 59.8C333.486 61.4667 333.319 63.3333 332.986 65.4C332.652 67.4667 332.319 69.3333 331.986 71L332.286 71.1C333.619 67.5667 335.219 64.3 337.086 61.3C339.019 58.2333 341.252 55.7667 343.786 53.9C346.319 52.0333 349.252 51.1 352.586 51.1C356.119 51.1 358.819 52.1667 360.686 54.3C362.552 56.4333 363.486 59.1 363.486 62.3C363.486 63.6333 363.319 64.9 362.986 66.1C362.719 67.3 362.419 68.4667 362.086 69.6C361.752 70.6667 361.452 71.7667 361.186 72.9C360.986 74.0333 360.886 75.1667 360.886 76.3C360.886 80.1 362.686 82.6667 366.286 84C367.219 84.4 367.686 85 367.686 85.8C367.686 86.4 367.486 87.2667 367.086 88.4C366.686 89.5333 365.952 90.6 364.886 91.6C363.819 92.5333 362.252 93 360.186 93C357.519 93 355.452 92.0667 353.986 90.2C352.519 88.2667 351.786 85.8333 351.786 82.9C351.786 81.2333 351.952 79.5667 352.286 77.9C352.686 76.1667 353.086 74.5667 353.486 73.1C353.752 71.9667 353.986 70.8667 354.186 69.8C354.452 68.6667 354.586 67.6667 354.586 66.8C354.586 63.7333 352.986 62.2 349.786 62.2C347.052 62.2 344.652 63.2333 342.586 65.3C340.519 67.3 338.752 69.8333 337.286 72.9C335.819 75.9667 334.619 79.0667 333.686 82.2V84.6C333.686 87.0667 332.986 89.1 331.586 90.7C330.252 92.3 328.419 93.1 326.086 93.1ZM389.799 93.3C384.732 93.3 380.765 91.8667 377.899 89C375.099 86.0667 373.699 82 373.699 76.8C373.699 72.0667 374.732 67.7667 376.799 63.9C378.865 60.0333 381.632 56.9667 385.099 54.7C388.632 52.3667 392.499 51.2 396.699 51.2C400.699 51.2 403.899 52.2 406.299 54.2C408.699 56.1333 409.899 58.7333 409.899 62C409.899 64.6 409.099 67 407.499 69.2C405.899 71.4 403.765 73.1667 401.099 74.5C398.432 75.7667 395.465 76.4 392.199 76.4C388.199 76.4 384.932 75.5 382.399 73.7C382.465 76.7667 383.499 79.2333 385.499 81.1C387.565 82.9667 390.199 83.9 393.399 83.9C395.332 83.9 397.299 83.5667 399.299 82.9C401.365 82.1667 403.132 81.2 404.599 80C405.532 79.2 406.399 78.8 407.199 78.8C407.865 78.8 408.399 79.0333 408.799 79.5C409.265 79.9 409.499 80.4333 409.499 81.1C409.499 82.5667 408.232 84.5 405.699 86.9C401.232 91.1667 395.932 93.3 389.799 93.3ZM391.299 69.8C393.699 69.8 395.699 69.3 397.299 68.3C398.899 67.3 399.699 66.0333 399.699 64.5C399.699 63.2333 399.165 62.2667 398.099 61.6C397.032 60.8667 395.565 60.5 393.699 60.5C391.232 60.5 389.065 61.1667 387.199 62.5C385.399 63.7667 384.099 65.5667 383.299 67.9C384.232 68.5 385.432 68.9667 386.899 69.3C388.365 69.6333 389.832 69.8 391.299 69.8ZM431.665 93.3C426.999 93.3 423.332 91.9 420.665 89.1C418.065 86.2333 416.765 82.2667 416.765 77.2C416.765 72.2 417.832 67.7333 419.965 63.8C422.099 59.8667 425.032 56.7667 428.765 54.5C432.499 52.2333 436.732 51.1 441.465 51.1C444.665 51.1 447.199 51.6333 449.065 52.7C450.932 53.7667 451.865 55.2333 451.865 57.1C451.865 58.7667 451.065 60.4 449.465 62C448.865 62.6 448.065 63.1667 447.065 63.7C446.132 64.1667 445.399 64.4 444.865 64.4C444.265 64.4 443.765 64.1667 443.365 63.7C442.699 62.9667 441.832 62.2667 440.765 61.6C439.699 60.9333 438.199 60.6 436.265 60.6C432.999 60.6 430.332 61.7333 428.265 64C426.199 66.2 425.165 69.1 425.165 72.7C425.165 75.9667 426.099 78.6 427.965 80.6C429.832 82.6 432.299 83.6 435.365 83.6C436.965 83.6 438.699 83.3333 440.565 82.8C442.499 82.2 444.199 81.3667 445.665 80.3C446.399 79.6333 447.165 79.3 447.965 79.3C449.299 79.3 449.965 80.1333 449.965 81.8C449.965 84 448.865 86.1 446.665 88.1C444.999 89.6333 442.765 90.9 439.965 91.9C437.232 92.8333 434.465 93.3 431.665 93.3ZM472.293 93.3C468.226 93.3 465.293 91.9667 463.493 89.3C461.759 86.5667 460.893 83.0667 460.893 78.8C460.893 77.2667 460.959 75.7667 461.093 74.3C461.293 72.8333 461.493 71.3667 461.693 69.9C461.893 68.4333 462.093 67 462.293 65.6C462.493 64.2 462.659 62.8667 462.793 61.6C461.393 62 459.993 62.2 458.593 62.2C457.126 62.2 456.393 61.6 456.393 60.4C456.393 59.1333 456.959 57.6 458.093 55.8C459.226 53.9333 460.626 52.1 462.293 50.3C464.026 48.5 465.726 47 467.393 45.8C469.126 44.5333 470.593 43.9 471.793 43.9C473.259 43.9 473.993 45.1667 473.993 47.7C473.993 48.3667 473.926 49.0667 473.793 49.8C473.726 50.4667 473.626 51.1667 473.493 51.9C474.759 51.6333 476.026 51.4 477.293 51.2C478.626 51 479.893 50.9 481.093 50.9C482.626 50.9 483.793 51.1667 484.593 51.7C485.459 52.2333 485.893 53.2667 485.893 54.8C485.893 56.4 485.493 58 484.693 59.6C483.959 61.2 483.126 62 482.193 62C481.993 62 481.659 61.9667 481.193 61.9C480.726 61.8333 480.159 61.7333 479.493 61.6C478.626 61.4 477.526 61.2 476.193 61C474.859 60.8 473.259 60.7 471.393 60.7C470.926 62.7667 470.493 64.9 470.093 67.1C469.759 69.2333 469.593 71.1667 469.593 72.9C469.593 76.7667 470.559 79.4 472.493 80.8C474.426 82.2 477.226 82.9 480.893 82.9C482.026 82.9 482.826 83.1 483.293 83.5C483.759 83.8333 483.993 84.4667 483.993 85.4C483.993 87.6 482.859 89.4667 480.593 91C478.326 92.5333 475.559 93.3 472.293 93.3Z" fill="#100C08"/>
</svg>
