<svg width="365" height="83" viewBox="0 0 365 83" fill="none" xmlns="http://www.w3.org/2000/svg">
<path d="M8.19776 59.3796C7.01376 59.3796 5.92576 59.2676 4.93376 59.0436C3.94176 58.8196 3.12576 58.4036 2.48576 57.7956C2.00576 57.3476 1.68576 56.8516 1.52576 56.3076C1.36576 55.7316 1.28576 55.1076 1.28576 54.4356C1.28576 53.3476 1.38176 52.2596 1.57376 51.1716C1.86176 49.2836 2.11776 47.2516 2.34176 45.0756C2.56576 42.8996 2.67776 40.8836 2.67776 39.0276C2.67776 38.4516 2.64576 37.7956 2.58176 37.0596C2.54976 36.3236 2.48576 35.6356 2.38976 34.9956C2.16576 35.0916 1.94176 35.1876 1.71776 35.2836C1.52576 35.3476 1.34976 35.3796 1.18976 35.3796C0.901762 35.3796 0.709762 35.2356 0.613762 34.9476C0.517762 34.6596 0.469762 34.3396 0.469762 33.9876C0.469762 33.0596 0.677762 32.2756 1.09376 31.6356C1.54176 30.9636 2.26176 30.3716 3.25376 29.8596C4.30976 29.2836 5.68576 28.7876 7.38176 28.3716C9.10976 27.9236 10.8538 27.6996 12.6138 27.6996C16.6138 27.6996 19.7498 28.8836 22.0218 31.2516C24.3258 33.5876 25.4778 36.9156 25.4778 41.2356C25.4778 43.6996 25.0938 46.0356 24.3258 48.2436C23.5898 50.4196 22.4858 52.3556 21.0138 54.0516C19.5418 55.7156 17.7338 57.0276 15.5898 57.9876C13.4458 58.9156 10.9818 59.3796 8.19776 59.3796ZM9.73376 54.0036C11.1738 54.0036 12.6138 53.7796 14.0538 53.3316C15.4938 52.8836 16.7898 52.2116 17.9418 51.3156C19.1258 50.4196 20.0698 49.2836 20.7738 47.9076C21.4778 46.4996 21.8298 44.8196 21.8298 42.8676C21.8298 40.6596 21.3978 38.8356 20.5338 37.3956C19.6698 35.9556 18.5178 34.8836 17.0778 34.1796C15.6378 33.4756 14.0378 33.1236 12.2778 33.1236C11.3178 33.1236 10.3578 33.2036 9.39776 33.3636C8.46976 33.5236 7.73376 33.6836 7.18976 33.8436C7.15776 35.3156 7.06176 36.7556 6.90176 38.1636C6.77376 39.5396 6.61376 40.8836 6.42176 42.1956C6.22976 43.5716 6.06976 44.9156 5.94176 46.2276C5.84576 47.5396 5.79776 48.8356 5.79776 50.1156C5.79776 51.7156 6.11776 52.7716 6.75776 53.2836C7.42976 53.7636 8.42176 54.0036 9.73376 54.0036ZM35.9845 59.3796C33.5525 59.3796 31.6485 58.6916 30.2725 57.3156C28.9285 55.9076 28.2565 53.9556 28.2565 51.4596C28.2565 49.1876 28.7525 47.1236 29.7445 45.2676C30.7365 43.4116 32.0645 41.9396 33.7285 40.8516C35.4245 39.7316 37.2805 39.1716 39.2965 39.1716C41.2165 39.1716 42.7525 39.6516 43.9045 40.6116C45.0565 41.5396 45.6325 42.7876 45.6325 44.3556C45.6325 45.6036 45.2485 46.7556 44.4805 47.8116C43.7125 48.8676 42.6885 49.7156 41.4085 50.3556C40.1285 50.9636 38.7045 51.2676 37.1365 51.2676C35.2165 51.2676 33.6485 50.8356 32.4325 49.9716C32.4645 51.4436 32.9605 52.6276 33.9205 53.5236C34.9125 54.4196 36.1765 54.8676 37.7125 54.8676C38.6405 54.8676 39.5845 54.7076 40.5445 54.3876C41.5365 54.0356 42.3845 53.5716 43.0885 52.9956C43.5365 52.6116 43.9525 52.4196 44.3365 52.4196C44.6565 52.4196 44.9125 52.5316 45.1045 52.7556C45.3285 52.9476 45.4405 53.2036 45.4405 53.5236C45.4405 54.2276 44.8325 55.1556 43.6165 56.3076C41.4725 58.3556 38.9285 59.3796 35.9845 59.3796ZM36.7045 48.0996C37.8565 48.0996 38.8165 47.8596 39.5845 47.3796C40.3525 46.8996 40.7365 46.2916 40.7365 45.5556C40.7365 44.9476 40.4805 44.4836 39.9685 44.1636C39.4565 43.8116 38.7525 43.6356 37.8565 43.6356C36.6725 43.6356 35.6325 43.9556 34.7365 44.5956C33.8725 45.2036 33.2485 46.0676 32.8645 47.1876C33.3125 47.4756 33.8885 47.6996 34.5925 47.8596C35.2965 48.0196 36.0005 48.0996 36.7045 48.0996ZM56.0759 59.4276C55.2119 59.4276 54.4599 59.1716 53.8199 58.6596C53.2119 58.1156 52.8439 57.1236 52.7159 55.6836C52.6519 54.5956 52.5079 53.3956 52.2839 52.0836C52.0919 50.7716 51.8359 49.5236 51.5159 48.3396C51.1959 47.1556 50.8279 46.2276 50.4119 45.5556C50.1879 45.2036 49.9319 44.9476 49.6439 44.7876C49.3879 44.5956 48.9879 44.4676 48.4439 44.4036C48.0919 44.3716 47.8519 44.2596 47.7239 44.0676C47.5959 43.8756 47.5319 43.5716 47.5319 43.1556C47.5319 41.8436 47.8839 40.8836 48.5879 40.2756C49.3239 39.6356 50.1559 39.3156 51.0839 39.3156C52.0439 39.3156 52.8439 39.6356 53.4839 40.2756C54.1239 40.8836 54.6199 41.6996 54.9719 42.7236C55.3239 43.7476 55.5639 44.8836 55.6919 46.1316C55.8519 47.3476 55.9319 48.5796 55.9319 49.8276C55.9319 50.3396 55.9159 50.8836 55.8839 51.4596C55.8839 52.0036 55.8839 52.4676 55.8839 52.8516C55.8839 53.2036 55.9479 53.4756 56.0759 53.6676C56.2359 53.8596 56.5239 53.9556 56.9399 53.9556C57.4519 53.9556 58.0439 53.8116 58.7159 53.5236C59.3879 53.2036 60.0439 52.7556 60.6839 52.1796C61.3559 51.6036 61.8999 50.9316 62.3159 50.1636C62.7639 49.3636 62.9879 48.4836 62.9879 47.5236C62.9879 46.9796 62.8919 46.4036 62.6999 45.7956C62.5399 45.1876 62.2679 44.6756 61.8839 44.2596C61.4999 43.8436 61.2119 43.5236 61.0199 43.2996C60.8599 43.0436 60.7799 42.7556 60.7799 42.4356C60.7799 41.8596 61.0359 41.3316 61.5479 40.8516C62.0919 40.3716 62.7159 39.9876 63.4199 39.6996C64.1559 39.4116 64.7959 39.2676 65.3399 39.2676C66.2679 39.2676 66.8599 39.6516 67.1159 40.4196C67.3719 41.1876 67.4999 42.0356 67.4999 42.9636C67.4999 44.7236 67.1799 46.5636 66.5399 48.4836C65.8999 50.4036 65.0359 52.1956 63.9479 53.8596C62.8599 55.5236 61.6279 56.8676 60.2519 57.8916C58.9079 58.9156 57.5159 59.4276 56.0759 59.4276ZM82.4406 59.3796C80.1686 59.3796 78.1686 58.8676 76.4406 57.8436C74.7446 56.8196 73.4326 55.3636 72.5046 53.4756C71.5766 51.5876 71.1126 49.3476 71.1126 46.7556C71.1126 44.2916 71.5126 41.9236 72.3126 39.6516C73.1126 37.3796 74.2646 35.3476 75.7686 33.5556C77.2726 31.7636 79.0806 30.3396 81.1926 29.2836C83.3046 28.2276 85.6886 27.6996 88.3446 27.6996C90.3286 27.6996 91.9606 28.0036 93.2406 28.6116C94.5206 29.2196 95.1606 30.1156 95.1606 31.2996C95.1606 31.8756 95.0006 32.4516 94.6806 33.0276C94.3926 33.5716 94.0086 34.0356 93.5286 34.4196C93.0486 34.8036 92.5526 34.9956 92.0406 34.9956C91.7206 34.9956 91.4646 34.9156 91.2726 34.7556C90.4086 34.1796 89.5606 33.7636 88.7286 33.5076C87.8966 33.2196 86.9366 33.0756 85.8486 33.0756C83.5766 33.0756 81.6566 33.6036 80.0886 34.6596C78.5206 35.6836 77.3206 37.0436 76.4886 38.7396C75.6886 40.4356 75.2886 42.2756 75.2886 44.2596C75.2886 46.1796 75.6566 47.8756 76.3926 49.3476C77.1286 50.8196 78.1526 51.9716 79.4646 52.8036C80.7766 53.6356 82.3126 54.0516 84.0726 54.0516C85.4806 54.0516 86.8406 53.7796 88.1526 53.2356C89.4966 52.6596 90.6806 51.8756 91.7046 50.8836C92.1526 50.4676 92.6006 50.2596 93.0486 50.2596C93.4326 50.2596 93.7046 50.4196 93.8646 50.7396C94.0246 51.0596 94.1046 51.3796 94.1046 51.6996C94.1046 52.2436 93.9446 52.8676 93.6246 53.5716C93.3046 54.2436 92.8086 54.9156 92.1366 55.5876C90.9526 56.7716 89.4966 57.6996 87.7686 58.3716C86.0406 59.0436 84.2646 59.3796 82.4406 59.3796ZM104.704 59.3796C102.496 59.3796 100.72 58.7876 99.3764 57.6036C98.0644 56.3876 97.4084 54.6116 97.4084 52.2756C97.4084 51.1876 97.5524 50.1316 97.8404 49.1076C98.1604 48.0836 98.5764 47.1236 99.0884 46.2276C98.5764 46.5476 98.1924 46.7076 97.9364 46.7076C97.5524 46.7076 97.2804 46.4996 97.1204 46.0836C96.9924 45.6356 96.9284 45.2036 96.9284 44.7876C96.9284 44.0516 97.0724 43.4756 97.3604 43.0596C97.6804 42.6116 97.9844 42.2756 98.2724 42.0516C98.9444 41.4756 100 40.8516 101.44 40.1796C102.88 39.4756 104.608 39.1236 106.624 39.1236C109.376 39.1236 111.504 39.8916 113.008 41.4276C114.544 42.9636 115.312 45.1076 115.312 47.8596C115.312 50.0036 114.864 51.9556 113.968 53.7156C113.072 55.4436 111.824 56.8196 110.224 57.8436C108.656 58.8676 106.816 59.3796 104.704 59.3796ZM106.192 54.4836C107.792 54.4836 109.136 53.9876 110.224 52.9956C111.344 51.9716 111.904 50.6276 111.904 48.9636C111.904 47.2356 111.344 46.0036 110.224 45.2676C109.104 44.5316 107.808 44.1636 106.336 44.1636C105.664 44.1636 105.056 44.2276 104.512 44.3556C103.968 44.4836 103.456 44.6436 102.976 44.8356C102.528 45.4756 102.128 46.1956 101.776 46.9956C101.424 47.7956 101.248 48.6756 101.248 49.6356C101.248 51.2356 101.728 52.4516 102.688 53.2836C103.648 54.0836 104.816 54.4836 106.192 54.4836ZM121.699 59.2836C120.547 59.2836 120.035 58.8996 120.163 58.1316C120.515 56.7556 120.803 55.3636 121.027 53.9556C121.283 52.5156 121.411 51.1396 121.411 49.8276C121.411 48.1316 121.299 46.8996 121.075 46.1316C120.883 45.3316 120.611 44.7876 120.259 44.4996C119.907 44.1796 119.475 43.9396 118.963 43.7796C118.739 43.6836 118.531 43.5556 118.339 43.3956C118.179 43.2356 118.099 43.0116 118.099 42.7236C118.099 42.2756 118.275 41.7796 118.627 41.2356C118.979 40.6916 119.475 40.2276 120.115 39.8436C120.787 39.4276 121.539 39.2196 122.371 39.2196C123.459 39.2196 124.211 39.6036 124.627 40.3716C125.043 41.1076 125.251 42.0836 125.251 43.2996C125.251 44.0996 125.171 44.9956 125.011 45.9876C124.851 46.9796 124.691 47.8756 124.531 48.6756L124.675 48.7236C125.315 47.0276 126.083 45.4596 126.979 44.0196C127.907 42.5476 128.979 41.3636 130.195 40.4676C131.411 39.5716 132.819 39.1236 134.419 39.1236C136.115 39.1236 137.411 39.6356 138.307 40.6596C139.203 41.6836 139.651 42.9636 139.651 44.4996C139.651 45.1396 139.571 45.7476 139.411 46.3236C139.283 46.8996 139.139 47.4596 138.979 48.0036C138.819 48.5156 138.675 49.0436 138.547 49.5876C138.451 50.1316 138.403 50.6756 138.403 51.2196C138.403 53.0436 139.267 54.2756 140.995 54.9156C141.443 55.1076 141.667 55.3956 141.667 55.7796C141.667 56.0676 141.571 56.4836 141.379 57.0276C141.187 57.5716 140.835 58.0836 140.323 58.5636C139.811 59.0116 139.059 59.2356 138.067 59.2356C136.787 59.2356 135.795 58.7876 135.091 57.8916C134.387 56.9636 134.035 55.7956 134.035 54.3876C134.035 53.5876 134.115 52.7876 134.275 51.9876C134.467 51.1556 134.659 50.3876 134.851 49.6836C134.979 49.1396 135.091 48.6116 135.187 48.0996C135.315 47.5556 135.379 47.0756 135.379 46.6596C135.379 45.1876 134.611 44.4516 133.075 44.4516C131.763 44.4516 130.611 44.9476 129.619 45.9396C128.627 46.8996 127.779 48.1156 127.075 49.5876C126.371 51.0596 125.795 52.5476 125.347 54.0516V55.2036C125.347 56.3876 125.011 57.3636 124.339 58.1316C123.699 58.8996 122.819 59.2836 121.699 59.2836ZM147.433 59.2836C146.281 59.2836 145.769 58.8996 145.897 58.1316C146.249 56.7556 146.537 55.3636 146.761 53.9556C147.017 52.5156 147.145 51.1396 147.145 49.8276C147.145 48.1316 147.033 46.8996 146.809 46.1316C146.617 45.3316 146.345 44.7876 145.993 44.4996C145.641 44.1796 145.209 43.9396 144.697 43.7796C144.473 43.6836 144.265 43.5556 144.073 43.3956C143.913 43.2356 143.833 43.0116 143.833 42.7236C143.833 42.2756 144.009 41.7796 144.361 41.2356C144.713 40.6916 145.209 40.2276 145.849 39.8436C146.521 39.4276 147.273 39.2196 148.105 39.2196C149.193 39.2196 149.945 39.6036 150.361 40.3716C150.777 41.1076 150.985 42.0836 150.985 43.2996C150.985 44.0996 150.905 44.9956 150.745 45.9876C150.585 46.9796 150.425 47.8756 150.265 48.6756L150.409 48.7236C151.049 47.0276 151.817 45.4596 152.713 44.0196C153.641 42.5476 154.713 41.3636 155.929 40.4676C157.145 39.5716 158.553 39.1236 160.153 39.1236C161.849 39.1236 163.145 39.6356 164.041 40.6596C164.937 41.6836 165.385 42.9636 165.385 44.4996C165.385 45.1396 165.305 45.7476 165.145 46.3236C165.017 46.8996 164.873 47.4596 164.713 48.0036C164.553 48.5156 164.409 49.0436 164.281 49.5876C164.185 50.1316 164.137 50.6756 164.137 51.2196C164.137 53.0436 165.001 54.2756 166.729 54.9156C167.177 55.1076 167.401 55.3956 167.401 55.7796C167.401 56.0676 167.305 56.4836 167.113 57.0276C166.921 57.5716 166.569 58.0836 166.057 58.5636C165.545 59.0116 164.793 59.2356 163.801 59.2356C162.521 59.2356 161.529 58.7876 160.825 57.8916C160.121 56.9636 159.769 55.7956 159.769 54.3876C159.769 53.5876 159.849 52.7876 160.009 51.9876C160.201 51.1556 160.393 50.3876 160.585 49.6836C160.713 49.1396 160.825 48.6116 160.921 48.0996C161.049 47.5556 161.113 47.0756 161.113 46.6596C161.113 45.1876 160.345 44.4516 158.809 44.4516C157.497 44.4516 156.345 44.9476 155.353 45.9396C154.361 46.8996 153.513 48.1156 152.809 49.5876C152.105 51.0596 151.529 52.5476 151.081 54.0516V55.2036C151.081 56.3876 150.745 57.3636 150.073 58.1316C149.433 58.8996 148.553 59.2836 147.433 59.2836ZM178.016 59.3796C175.584 59.3796 173.68 58.6916 172.304 57.3156C170.96 55.9076 170.288 53.9556 170.288 51.4596C170.288 49.1876 170.784 47.1236 171.776 45.2676C172.768 43.4116 174.096 41.9396 175.76 40.8516C177.456 39.7316 179.312 39.1716 181.328 39.1716C183.248 39.1716 184.784 39.6516 185.936 40.6116C187.088 41.5396 187.664 42.7876 187.664 44.3556C187.664 45.6036 187.28 46.7556 186.512 47.8116C185.744 48.8676 184.72 49.7156 183.44 50.3556C182.16 50.9636 180.736 51.2676 179.168 51.2676C177.248 51.2676 175.68 50.8356 174.464 49.9716C174.496 51.4436 174.992 52.6276 175.952 53.5236C176.944 54.4196 178.208 54.8676 179.744 54.8676C180.672 54.8676 181.616 54.7076 182.576 54.3876C183.568 54.0356 184.416 53.5716 185.12 52.9956C185.568 52.6116 185.984 52.4196 186.368 52.4196C186.688 52.4196 186.944 52.5316 187.136 52.7556C187.36 52.9476 187.472 53.2036 187.472 53.5236C187.472 54.2276 186.864 55.1556 185.648 56.3076C183.504 58.3556 180.96 59.3796 178.016 59.3796ZM178.736 48.0996C179.888 48.0996 180.848 47.8596 181.616 47.3796C182.384 46.8996 182.768 46.2916 182.768 45.5556C182.768 44.9476 182.512 44.4836 182 44.1636C181.488 43.8116 180.784 43.6356 179.888 43.6356C178.704 43.6356 177.664 43.9556 176.768 44.5956C175.904 45.2036 175.28 46.0676 174.896 47.1876C175.344 47.4756 175.92 47.6996 176.624 47.8596C177.328 48.0196 178.032 48.0996 178.736 48.0996ZM198.112 59.3796C195.872 59.3796 194.112 58.7076 192.832 57.3636C191.584 55.9876 190.96 54.0836 190.96 51.6516C190.96 49.2516 191.472 47.1076 192.496 45.2196C193.52 43.3316 194.928 41.8436 196.72 40.7556C198.512 39.6676 200.544 39.1236 202.816 39.1236C204.352 39.1236 205.568 39.3796 206.464 39.8916C207.36 40.4036 207.808 41.1076 207.808 42.0036C207.808 42.8036 207.424 43.5876 206.656 44.3556C206.368 44.6436 205.984 44.9156 205.504 45.1716C205.056 45.3956 204.704 45.5076 204.448 45.5076C204.16 45.5076 203.92 45.3956 203.728 45.1716C203.408 44.8196 202.992 44.4836 202.48 44.1636C201.968 43.8436 201.248 43.6836 200.32 43.6836C198.752 43.6836 197.472 44.2276 196.48 45.3156C195.488 46.3716 194.992 47.7636 194.992 49.4916C194.992 51.0596 195.44 52.3236 196.336 53.2836C197.232 54.2436 198.416 54.7236 199.888 54.7236C200.656 54.7236 201.488 54.5956 202.384 54.3396C203.312 54.0516 204.128 53.6516 204.832 53.1396C205.184 52.8196 205.552 52.6596 205.936 52.6596C206.576 52.6596 206.896 53.0596 206.896 53.8596C206.896 54.9156 206.368 55.9236 205.312 56.8836C204.512 57.6196 203.44 58.2276 202.096 58.7076C200.784 59.1556 199.456 59.3796 198.112 59.3796ZM217.613 59.3796C215.661 59.3796 214.253 58.7396 213.389 57.4596C212.557 56.1476 212.141 54.4676 212.141 52.4196C212.141 51.6836 212.173 50.9636 212.237 50.2596C212.333 49.5556 212.429 48.8516 212.525 48.1476C212.621 47.4436 212.717 46.7556 212.813 46.0836C212.909 45.4116 212.989 44.7716 213.053 44.1636C212.381 44.3556 211.709 44.4516 211.037 44.4516C210.333 44.4516 209.981 44.1636 209.981 43.5876C209.981 42.9796 210.253 42.2436 210.797 41.3796C211.341 40.4836 212.013 39.6036 212.813 38.7396C213.645 37.8756 214.461 37.1556 215.261 36.5796C216.093 35.9716 216.797 35.6676 217.373 35.6676C218.077 35.6676 218.429 36.2756 218.429 37.4916C218.429 37.8116 218.397 38.1476 218.333 38.4996C218.301 38.8196 218.253 39.1556 218.189 39.5076C218.797 39.3796 219.405 39.2676 220.013 39.1716C220.653 39.0756 221.261 39.0276 221.837 39.0276C222.573 39.0276 223.133 39.1556 223.517 39.4116C223.933 39.6676 224.141 40.1636 224.141 40.8996C224.141 41.6676 223.949 42.4356 223.565 43.2036C223.213 43.9716 222.813 44.3556 222.365 44.3556C222.269 44.3556 222.109 44.3396 221.885 44.3076C221.661 44.2756 221.389 44.2276 221.069 44.1636C220.653 44.0676 220.125 43.9716 219.485 43.8756C218.845 43.7796 218.077 43.7316 217.181 43.7316C216.957 44.7236 216.749 45.7476 216.557 46.8036C216.397 47.8276 216.317 48.7556 216.317 49.5876C216.317 51.4436 216.781 52.7076 217.709 53.3796C218.637 54.0516 219.981 54.3876 221.741 54.3876C222.285 54.3876 222.669 54.4836 222.893 54.6756C223.117 54.8356 223.229 55.1396 223.229 55.5876C223.229 56.6436 222.685 57.5396 221.597 58.2756C220.509 59.0116 219.181 59.3796 217.613 59.3796Z" fill="#100C08"/>
</svg>
