<svg width="73" height="73" viewBox="0 0 73 73" fill="none" xmlns="http://www.w3.org/2000/svg">
<path d="M45.625 63.875V39.5417C45.625 38.735 45.3045 37.9613 44.7341 37.3909C44.1637 36.8205 43.39 36.5 42.5833 36.5H30.4167C29.61 36.5 28.8363 36.8205 28.2659 37.3909C27.6955 37.9613 27.375 38.735 27.375 39.5417V63.875" stroke="#652BE6" stroke-width="2" stroke-linecap="round" stroke-linejoin="round"/>
<path d="M9.125 30.4167C9.12479 29.5318 9.31764 28.6575 9.6901 27.8548C10.0626 27.052 10.6057 26.3403 11.2815 25.769L32.5732 7.52209C33.6712 6.5941 35.0624 6.08496 36.5 6.08496C37.9376 6.08496 39.3288 6.5941 40.4268 7.52209L61.7185 25.769C62.3943 26.3403 62.9374 27.052 63.3099 27.8548C63.6824 28.6575 63.8752 29.5318 63.875 30.4167V57.7917C63.875 59.4051 63.2341 60.9524 62.0932 62.0933C60.9524 63.2341 59.4051 63.875 57.7917 63.875H15.2083C13.5949 63.875 12.0476 63.2341 10.9068 62.0933C9.76592 60.9524 9.125 59.4051 9.125 57.7917V30.4167Z" stroke="#652BE6" stroke-width="2" stroke-linecap="round" stroke-linejoin="round"/>
</svg>
