<svg width="78" height="78" viewBox="0 0 78 78" fill="none" xmlns="http://www.w3.org/2000/svg">
<rect x="0.5" y="0.5" width="77" height="77" stroke="#652BE6"/>
<path d="M13.78 39.8126C12.495 38.5361 11.4769 37.0166 10.785 35.3426C10.0931 33.6687 9.74125 31.8738 9.75 30.0626C9.75 26.3993 11.2052 22.886 13.7956 20.2956C16.3859 17.7053 19.8992 16.2501 23.5625 16.2501C28.6975 16.2501 33.1825 19.0451 35.555 23.2051H39.195C40.4011 21.0895 42.1463 19.3313 44.2529 18.1096C46.3595 16.8879 48.7523 16.2463 51.1875 16.2501C54.8508 16.2501 58.3641 17.7053 60.9544 20.2956C63.5448 22.886 65 26.3993 65 30.0626C65 33.8651 63.375 37.3751 60.97 39.8126L37.375 63.3751L13.78 39.8126ZM63.245 42.1201C66.3325 39.0001 68.25 34.7751 68.25 30.0626C68.25 25.5373 66.4523 21.1974 63.2525 17.9975C60.0527 14.7977 55.7128 13.0001 51.1875 13.0001C45.5 13.0001 40.4625 15.7626 37.375 20.0526C35.7991 17.8637 33.724 16.0821 31.3218 14.8556C28.9196 13.6291 26.2597 12.993 23.5625 13.0001C19.0372 13.0001 14.6973 14.7977 11.4975 17.9975C8.29765 21.1974 6.5 25.5373 6.5 30.0626C6.5 34.7751 8.4175 39.0001 11.505 42.1201L37.375 67.9901L63.245 42.1201Z" fill="#652BE6"/>
</svg>
