<svg width="73" height="73" viewBox="0 0 73 73" fill="none" xmlns="http://www.w3.org/2000/svg">
<path d="M36.5 63.875C41.9143 63.875 47.2069 62.2695 51.7087 59.2615C56.2105 56.2535 59.7193 51.9781 61.7912 46.976C63.8632 41.9738 64.4053 36.4696 63.349 31.1594C62.2927 25.8492 59.6855 20.9714 55.857 17.143C52.0286 13.3145 47.1508 10.7073 41.8406 9.65102C36.5304 8.59474 31.0262 9.13686 26.024 11.2088C21.0219 13.2808 16.7465 16.7895 13.7385 21.2913C10.7305 25.7931 9.125 31.0857 9.125 36.5C9.125 41.026 10.22 45.2904 12.1667 49.053L9.125 63.875L23.947 60.8333C27.7065 62.777 31.977 63.875 36.5 63.875Z" stroke="black" stroke-width="1.5" stroke-linecap="round" stroke-linejoin="round"/>
</svg>
