<svg width="73" height="73" viewBox="0 0 73 73" fill="none" xmlns="http://www.w3.org/2000/svg">
<path d="M9.125 19.0104C9.125 16.3886 10.1665 13.8742 12.0204 12.0204C13.8742 10.1665 16.3886 9.125 19.0104 9.125H53.9896C56.6114 9.125 59.1258 10.1665 60.9796 12.0204C62.8335 13.8742 63.875 16.3886 63.875 19.0104V53.9896C63.875 56.6114 62.8335 59.1258 60.9796 60.9796C59.1258 62.8335 56.6114 63.875 53.9896 63.875H19.0104C16.3886 63.875 13.8742 62.8335 12.0204 60.9796C10.1665 59.1258 9.125 56.6114 9.125 53.9896V19.0104ZM19.0104 13.6875C17.5987 13.6875 16.2448 14.2483 15.2465 15.2465C14.2483 16.2448 13.6875 17.5987 13.6875 19.0104V25.8542H25.8542V13.6875H19.0104ZM13.6875 30.4167V42.5833H25.8542V30.4167H13.6875ZM30.4167 30.4167V42.5833H42.5833V30.4167H30.4167ZM47.1458 30.4167V42.5833H59.3125V30.4167H47.1458ZM42.5833 47.1458H30.4167V59.3125H42.5833V47.1458ZM47.1458 59.3125H53.9896C55.4013 59.3125 56.7552 58.7517 57.7535 57.7535C58.7517 56.7552 59.3125 55.4013 59.3125 53.9896V47.1458H47.1458V59.3125ZM47.1458 25.8542H59.3125V19.0104C59.3125 17.5987 58.7517 16.2448 57.7535 15.2465C56.7552 14.2483 55.4013 13.6875 53.9896 13.6875H47.1458V25.8542ZM42.5833 13.6875H30.4167V25.8542H42.5833V13.6875ZM13.6875 47.1458V53.9896C13.6875 56.9278 16.0722 59.3125 19.0104 59.3125H25.8542V47.1458H13.6875Z" fill="black"/>
</svg>
